toadie.ufo
<glyph name="glyph00004" format="1">
  <advance width="549"/>
  <unicode hex="0024"/>
  <outline>
    <contour>
      <point x="197" y="797" type="qcurve"/>
      <point x="191" y="790"/>
      <point x="191" y="680"/>
      <point x="195" y="612" type="qcurve" smooth="yes"/>
      <point x="198" y="550" type="line"/>
      <point x="188" y="533" type="line" smooth="yes"/>
      <point x="175" y="516"/>
      <point x="161" y="459"/>
      <point x="161" y="432" type="qcurve" smooth="yes"/>
      <point x="163" y="408"/>
      <point x="181" y="373"/>
      <point x="200" y="346" type="qcurve"/>
      <point x="218" y="330"/>
      <point x="226" y="294"/>
      <point x="232" y="223" type="qcurve" smooth="yes"/>
      <point x="239" y="169" type="line" smooth="yes"/>
      <point x="239" y="156" name="inserted"/>
      <point x="240" y="139"/>
      <point x="242" y="135" type="qcurve"/>
      <point x="242" y="116" type="line"/>
      <point x="230" y="116" type="line" smooth="yes"/>
      <point x="218" y="116"/>
      <point x="184" y="132"/>
      <point x="175" y="142" type="qcurve" smooth="yes"/>
      <point x="169" y="150"/>
      <point x="158" y="174"/>
      <point x="149" y="183" type="qcurve" smooth="yes"/>
      <point x="140" y="205"/>
      <point x="126" y="224"/>
      <point x="118" y="223" type="qcurve"/>
      <point x="111" y="223"/>
      <point x="109" y="215"/>
      <point x="110" y="205" type="qcurve" smooth="yes"/>
      <point x="110" y="191"/>
      <point x="140" y="135"/>
      <point x="159" y="118" type="qcurve" smooth="yes"/>
      <point x="173" y="105"/>
      <point x="211" y="86"/>
      <point x="226" y="86" type="qcurve" smooth="yes"/>
      <point x="233" y="86"/>
      <point x="242" y="85"/>
      <point x="242" y="83" type="qcurve" smooth="yes" name="inserted"/>
      <point x="244" y="83" name="inserted"/>
      <point x="246" y="72"/>
      <point x="248" y="62" type="qcurve" smooth="yes"/>
      <point x="255" y="19" type="line" smooth="yes"/>
      <point x="258" y="-8"/>
      <point x="263" y="-47"/>
      <point x="264" y="-50" type="qcurve"/>
      <point x="272" y="-54"/>
      <point x="287" y="-52"/>
      <point x="289" y="-46" type="qcurve"/>
      <point x="291" y="-41"/>
      <point x="291" y="-10"/>
      <point x="287" y="22" type="qcurve" smooth="yes"/>
      <point x="281" y="47"/>
      <point x="278" y="83"/>
      <point x="280" y="83" type="qcurve" smooth="yes" name="inserted"/>
      <point x="280" y="85"/>
      <point x="295" y="87"/>
      <point x="303" y="89" type="qcurve" smooth="yes"/>
      <point x="322" y="92" type="line"/>
      <point x="328" y="63" type="line" smooth="yes"/>
      <point x="331" y="34" name="inserted"/>
      <point x="345" y="10"/>
      <point x="357" y="22" type="qcurve" smooth="yes"/>
      <point x="361" y="23" name="inserted"/>
      <point x="365" y="34"/>
      <point x="362" y="36" type="qcurve"/>
      <point x="361" y="39"/>
      <point x="359" y="58"/>
      <point x="359" y="71" type="qcurve" smooth="yes"/>
      <point x="357" y="99" type="line"/>
      <point x="380" y="112" type="line" smooth="yes"/>
      <point x="412" y="130" name="inserted"/>
      <point x="428" y="172"/>
      <point x="417" y="193" type="qcurve" smooth="yes"/>
      <point x="413" y="200"/>
      <point x="391" y="224"/>
      <point x="377" y="235" type="qcurve" smooth="yes"/>
      <point x="340" y="267" type="line"/>
      <point x="340" y="399" type="line" smooth="yes"/>
      <point x="340" y="458"/>
      <point x="345" y="535"/>
      <point x="345" y="540" type="qcurve"/>
      <point x="346" y="550" type="line"/>
      <point x="366" y="538" type="line" smooth="yes"/>
      <point x="392" y="523"/>
      <point x="435" y="465"/>
      <point x="455" y="408" type="qcurve" smooth="yes"/>
      <point x="470" y="365"/>
      <point x="484" y="339"/>
      <point x="494" y="342" type="qcurve"/>
      <point x="505" y="342"/>
      <point x="500" y="374"/>
      <point x="483" y="421" type="qcurve" smooth="yes"/>
      <point x="469" y="459"/>
      <point x="450" y="494"/>
      <point x="437" y="511" type="qcurve" smooth="yes"/>
      <point x="422" y="532"/>
      <point x="384" y="563"/>
      <point x="366" y="573" type="qcurve"/>
      <point x="354" y="577" type="line" smooth="yes"/>
      <point x="348" y="580"/>
      <point x="347" y="581"/>
      <point x="347" y="591" type="qcurve"/>
      <point x="348" y="612" type="line" smooth="yes"/>
      <point x="360" y="706"/>
      <point x="365" y="756"/>
      <point x="361" y="759" type="qcurve"/>
      <point x="357" y="764"/>
      <point x="345" y="768"/>
      <point x="338" y="762" type="qcurve"/>
      <point x="336" y="758"/>
      <point x="329" y="708"/>
      <point x="322" y="670" type="qcurve" smooth="yes"/>
      <point x="316" y="586" type="line"/>
      <point x="287" y="582" type="line" smooth="yes"/>
      <point x="274" y="581"/>
      <point x="250" y="579"/>
      <point x="244" y="577" type="qcurve"/>
      <point x="240" y="576" name="inserted"/>
      <point x="232" y="575"/>
      <point x="230" y="576" type="qcurve"/>
      <point x="229" y="580"/>
      <point x="223" y="675"/>
      <point x="220" y="727" type="qcurve" smooth="yes"/>
      <point x="223" y="776"/>
      <point x="217" y="802"/>
      <point x="206" y="799" type="qcurve"/>
      <point x="204" y="799" name="inserted"/>
      <point x="198" y="798"/>
      <point x="197" y="797" type="qcurve"/>
      <point x="197" y="797" name="inserted"/>
      <point x="197" y="797"/>
    </contour>
    <contour>
      <point x="309" y="425" type="qcurve"/>
      <point x="308" y="373"/>
      <point x="308" y="297"/>
      <point x="307" y="294" type="qcurve"/>
      <point x="300" y="294"/>
      <point x="258" y="333"/>
      <point x="255" y="344" type="qcurve"/>
      <point x="251" y="351"/>
      <point x="246" y="410"/>
      <point x="242" y="446" type="qcurve" smooth="yes"/>
      <point x="239" y="503"/>
      <point x="235" y="539"/>
      <point x="239" y="540" type="qcurve"/>
      <point x="246" y="545"/>
      <point x="277" y="557"/>
      <point x="294" y="557" type="qcurve" smooth="yes"/>
      <point x="309" y="556" type="line"/>
      <point x="309" y="425" type="line"/>
      <point x="309" y="425" name="inserted"/>
      <point x="309" y="425"/>
    </contour>
    <contour>
      <point x="303" y="257" type="qcurve"/>
      <point x="308" y="254"/>
      <point x="315" y="221"/>
      <point x="319" y="156" type="qcurve" smooth="yes"/>
      <point x="321" y="122" type="line"/>
      <point x="307" y="118" type="line" smooth="yes"/>
      <point x="294" y="116"/>
      <point x="274" y="113"/>
      <point x="274" y="117" type="qcurve"/>
      <point x="257" y="294" type="line"/>
      <point x="276" y="279" type="line" smooth="yes"/>
      <point x="278" y="276" name="inserted"/>
      <point x="288" y="271"/>
      <point x="291" y="268" type="qcurve"/>
      <point x="303" y="257" type="line"/>
      <point x="303" y="257" name="inserted"/>
      <point x="303" y="257"/>
    </contour>
    <contour>
      <point x="367" y="203" type="qcurve"/>
      <point x="390" y="185"/>
      <point x="394" y="159"/>
      <point x="378" y="146" type="qcurve" smooth="yes" name="inserted"/>
      <point x="365" y="133"/>
      <point x="353" y="139"/>
      <point x="352" y="163" type="qcurve"/>
      <point x="348" y="187" type="line" smooth="yes"/>
      <point x="347" y="193" name="inserted"/>
      <point x="346" y="203"/>
      <point x="346" y="204" type="qcurve" smooth="yes"/>
      <point x="345" y="212" name="inserted"/>
      <point x="346" y="219"/>
      <point x="347" y="219" type="qcurve"/>
      <point x="348" y="219"/>
      <point x="360" y="210"/>
      <point x="367" y="203" type="qcurve"/>
      <point x="367" y="203" name="inserted"/>
      <point x="367" y="203"/>
    </contour>
  </outline>
</glyph>
<glyph name="glyph00008" format="1">
  <advance width="446"/>
  <unicode hex="0028"/>
  <outline>
    <contour>
      <point x="340" y="828" type="qcurve"/>
      <point x="316" y="807"/>
      <point x="289" y="776"/>
      <point x="277" y="756" type="qcurve" smooth="yes"/>
      <point x="256" y="721"/>
      <point x="216" y="630"/>
      <point x="196" y="572" type="qcurve" smooth="yes"/>
      <point x="172" y="503"/>
      <point x="153" y="419"/>
      <point x="151" y="372" type="qcurve" smooth="yes"/>
      <point x="149" y="328"/>
      <point x="165" y="243"/>
      <point x="185" y="194" type="qcurve" smooth="yes"/>
      <point x="211" y="129"/>
      <point x="282" y="16"/>
      <point x="303" y="3" type="qcurve"/>
      <point x="311" y="0"/>
      <point x="324" y="1"/>
      <point x="324" y="5" type="qcurve" smooth="yes"/>
      <point x="324" y="7"/>
      <point x="317" y="17"/>
      <point x="312" y="23" type="qcurve" smooth="yes"/>
      <point x="300" y="40"/>
      <point x="256" y="117"/>
      <point x="241" y="146" type="qcurve" smooth="yes"/>
      <point x="211" y="209"/>
      <point x="187" y="309"/>
      <point x="189" y="359" type="qcurve" smooth="yes"/>
      <point x="191" y="401"/>
      <point x="212" y="489"/>
      <point x="246" y="590" type="qcurve" smooth="yes"/>
      <point x="259" y="629"/>
      <point x="304" y="729"/>
      <point x="319" y="753" type="qcurve" smooth="yes"/>
      <point x="328" y="767"/>
      <point x="354" y="795"/>
      <point x="375" y="812" type="qcurve" smooth="yes"/>
      <point x="392" y="827"/>
      <point x="400" y="837"/>
      <point x="396" y="838" type="qcurve"/>
      <point x="393" y="841" name="inserted"/>
      <point x="381" y="845"/>
      <point x="372" y="847" type="qcurve"/>
      <point x="367" y="849"/>
      <point x="356" y="842"/>
      <point x="340" y="828" type="qcurve"/>
      <point x="340" y="828" name="inserted"/>
      <point x="340" y="828"/>
    </contour>
  </outline>
</glyph>
<glyph name="glyph00022" format="1">
  <advance width="381"/>
  <unicode hex="0036"/>
  <outline>
    <contour>
      <point x="178" y="531" type="qcurve"/>
      <point x="157" y="526"/>
      <point x="127" y="483"/>
      <point x="110" y="433" type="qcurve" smooth="yes"/>
      <point x="88" y="373"/>
      <point x="67" y="246"/>
      <point x="67" y="167" type="qcurve"/>
      <point x="67" y="128"/>
      <point x="70" y="100"/>
      <point x="77" y="87" type="qcurve"/>
      <point x="86" y="66"/>
      <point x="115" y="31"/>
      <point x="131" y="24" type="qcurve" smooth="yes"/>
      <point x="138" y="20"/>
      <point x="165" y="14"/>
      <point x="178" y="11" type="qcurve" smooth="yes"/>
      <point x="214" y="7"/>
      <point x="252" y="19"/>
      <point x="267" y="40" type="qcurve" smooth="yes"/>
      <point x="278" y="55"/>
      <point x="287" y="91"/>
      <point x="286" y="114" type="qcurve" smooth="yes"/>
      <point x="285" y="135"/>
      <point x="271" y="161"/>
      <point x="255" y="170" type="qcurve"/>
      <point x="246" y="175"/>
      <point x="225" y="177"/>
      <point x="202" y="177" type="qcurve" smooth="yes"/>
      <point x="171" y="177"/>
      <point x="131" y="167"/>
      <point x="115" y="155" type="qcurve" smooth="yes"/>
      <point x="108" y="150"/>
      <point x="97" y="144"/>
      <point x="96" y="145" type="qcurve"/>
      <point x="93" y="150"/>
      <point x="96" y="228"/>
      <point x="101" y="270" type="qcurve" smooth="yes"/>
      <point x="104" y="306"/>
      <point x="124" y="388"/>
      <point x="138" y="425" type="qcurve" smooth="yes"/>
      <point x="156" y="475"/>
      <point x="190" y="510"/>
      <point x="211" y="501" type="qcurve"/>
      <point x="222" y="497"/>
      <point x="237" y="473"/>
      <point x="246" y="445" type="qcurve" smooth="yes"/>
      <point x="250" y="432"/>
      <point x="259" y="412"/>
      <point x="260" y="410" type="qcurve"/>
      <point x="266" y="405"/>
      <point x="277" y="410"/>
      <point x="280" y="417" type="qcurve"/>
      <point x="281" y="427"/>
      <point x="263" y="488"/>
      <point x="252" y="505" type="qcurve"/>
      <point x="238" y="523"/>
      <point x="197" y="538"/>
      <point x="178" y="531" type="qcurve"/>
      <point x="178" y="531" name="inserted"/>
      <point x="178" y="531"/>
    </contour>
    <contour>
      <point x="244" y="141" type="qcurve"/>
      <point x="261" y="128"/>
      <point x="255" y="66"/>
      <point x="235" y="49" type="qcurve" smooth="yes"/>
      <point x="230" y="45"/>
      <point x="214" y="41"/>
      <point x="199" y="42" type="qcurve" smooth="yes"/>
      <point x="162" y="44"/>
      <point x="118" y="67"/>
      <point x="107" y="91" type="qcurve" smooth="yes"/>
      <point x="100" y="105" type="line"/>
      <point x="124" y="123" type="line" smooth="yes"/>
      <point x="134" y="130"/>
      <point x="152" y="141"/>
      <point x="156" y="143" type="qcurve"/>
      <point x="172" y="146"/>
      <point x="233" y="145"/>
      <point x="244" y="141" type="qcurve"/>
      <point x="244" y="141" name="inserted"/>
      <point x="244" y="141"/>
    </contour>
  </outline>
</glyph>
<glyph name="glyph00025" format="1">
  <advance width="511.0"/>
  <unicode hex="0039"/>
  <outline>
    <contour>
      <point x="132" y="565" type="qcurve"/>
      <point x="119" y="559"/>
      <point x="105" y="531"/>
      <point x="102" y="505" type="qcurve" smooth="yes"/>
      <point x="95" y="454" name="inserted"/>
      <point x="116" y="403"/>
      <point x="145" y="403" type="qcurve" smooth="yes"/>
      <point x="163" y="404"/>
      <point x="196" y="428"/>
      <point x="208" y="447" type="qcurve" smooth="yes"/>
      <point x="213" y="457"/>
      <point x="219" y="460"/>
      <point x="221" y="454" type="qcurve" smooth="yes" name="inserted"/>
      <point x="221" y="448"/>
      <point x="223" y="324"/>
      <point x="223" y="236" type="qcurve" smooth="yes"/>
      <point x="223" y="133"/>
      <point x="226" y="20"/>
      <point x="228" y="14" type="qcurve"/>
      <point x="231" y="7"/>
      <point x="246" y="7"/>
      <point x="250" y="14" type="qcurve" smooth="yes"/>
      <point x="252" y="20"/>
      <point x="253" y="133"/>
      <point x="253" y="251" type="qcurve" smooth="yes"/>
      <point x="252" y="347"/>
      <point x="252" y="473"/>
      <point x="252" y="476" type="qcurve"/>
      <point x="252" y="476" name="inserted"/>
      <point x="255" y="473"/>
      <point x="256" y="472" type="qcurve"/>
      <point x="262" y="459" type="line" smooth="yes"/>
      <point x="271" y="439"/>
      <point x="294" y="413"/>
      <point x="303" y="414" type="qcurve"/>
      <point x="311" y="417"/>
      <point x="312" y="439"/>
      <point x="304" y="452" type="qcurve" smooth="yes"/>
      <point x="300" y="458"/>
      <point x="289" y="476"/>
      <point x="287" y="483" type="qcurve" smooth="yes"/>
      <point x="277" y="505"/>
      <point x="230" y="552"/>
      <point x="213" y="559" type="qcurve"/>
      <point x="191" y="567"/>
      <point x="143" y="570"/>
      <point x="132" y="565" type="qcurve"/>
      <point x="132" y="565" name="inserted"/>
      <point x="132" y="565"/>
    </contour>
    <contour>
      <point x="191" y="529" type="qcurve"/>
      <point x="192" y="528" name="inserted"/>
      <point x="197" y="527"/>
      <point x="202" y="525" type="qcurve"/>
      <point x="212" y="521" type="line"/>
      <point x="204" y="502" type="line" smooth="yes"/>
      <point x="192" y="479"/>
      <point x="159" y="441"/>
      <point x="146" y="440" type="qcurve"/>
      <point x="136" y="439"/>
      <point x="128" y="459"/>
      <point x="131" y="484" type="qcurve" smooth="yes"/>
      <point x="133" y="521"/>
      <point x="159" y="540"/>
      <point x="191" y="529" type="qcurve"/>
      <point x="191" y="529" name="inserted"/>
      <point x="191" y="529"/>
    </contour>
  </outline>
</glyph>
<glyph name="glyph00026" format="1">
  <advance width="1024"/>
  <unicode hex="003F"/>
  <outline>
    <contour>
      <point x="480" y="920" type="qcurve"/>
      <point x="454" y="917"/>
      <point x="391" y="887"/>
      <point x="353" y="857" type="qcurve" smooth="yes"/>
      <point x="327" y="834" name="inserted"/>
      <point x="297" y="803"/>
      <point x="295" y="793" type="qcurve"/>
      <point x="293" y="770"/>
      <point x="342" y="714"/>
      <point x="362" y="717" type="qcurve" smooth="yes"/>
      <point x="366" y="718"/>
      <point x="363" y="730"/>
      <point x="351" y="746" type="qcurve" smooth="yes"/>
      <point x="334" y="766"/>
      <point x="337" y="790"/>
      <point x="355" y="808" type="qcurve" smooth="yes"/>
      <point x="388" y="835"/>
      <point x="459" y="883"/>
      <point x="488" y="891" type="qcurve" smooth="yes"/>
      <point x="506" y="896"/>
      <point x="543" y="897"/>
      <point x="551" y="893" type="qcurve"/>
      <point x="567" y="886"/>
      <point x="576" y="825"/>
      <point x="572" y="790" type="qcurve" smooth="yes"/>
      <point x="570" y="764"/>
      <point x="543" y="694"/>
      <point x="508" y="624" type="qcurve" smooth="yes"/>
      <point x="450" y="506"/>
      <point x="406" y="386"/>
      <point x="399" y="324" type="qcurve" smooth="yes" name="inserted"/>
      <point x="393" y="260"/>
      <point x="418" y="194"/>
      <point x="462" y="168" type="qcurve"/>
      <point x="474" y="160"/>
      <point x="495" y="145"/>
      <point x="500" y="142" type="qcurve" smooth="yes"/>
      <point x="509" y="130"/>
      <point x="533" y="123"/>
      <point x="537" y="130" type="qcurve"/>
      <point x="538" y="134" name="inserted"/>
      <point x="514" y="159"/>
      <point x="488" y="176" type="qcurve"/>
      <point x="459" y="195"/>
      <point x="434" y="225"/>
      <point x="434" y="257" type="qcurve" smooth="yes"/>
      <point x="434" y="293"/>
      <point x="449" y="382"/>
      <point x="461" y="426" type="qcurve" smooth="yes"/>
      <point x="466" y="449"/>
      <point x="534" y="571"/>
      <point x="568" y="644" type="qcurve" smooth="yes"/>
      <point x="593" y="698"/>
      <point x="613" y="760"/>
      <point x="613" y="795" type="qcurve" smooth="yes"/>
      <point x="613" y="819"/>
      <point x="613" y="847"/>
      <point x="609" y="857" type="qcurve" smooth="yes"/>
      <point x="597" y="893"/>
      <point x="533" y="925"/>
      <point x="480" y="920" type="qcurve"/>
      <point x="480" y="920" name="inserted"/>
      <point x="480" y="920"/>
    </contour>
    <contour>
      <point x="494" y="23" type="qcurve"/>
      <point x="489" y="22"/>
      <point x="487" y="15"/>
      <point x="487" y="3" type="qcurve" smooth="yes"/>
      <point x="488" y="-11"/>
      <point x="495" y="-24"/>
      <point x="506" y="-30" type="qcurve" smooth="yes"/>
      <point x="519" y="-36"/>
      <point x="539" y="-32"/>
      <point x="533" y="-26" type="qcurve"/>
      <point x="527" y="-22" type="line"/>
      <point x="535" y="-19" type="line" smooth="yes"/>
      <point x="539" y="-17"/>
      <point x="544" y="-11"/>
      <point x="546" y="-6" type="qcurve" smooth="yes"/>
      <point x="548" y="3"/>
      <point x="543" y="16"/>
      <point x="533" y="20" type="qcurve" smooth="yes" name="inserted"/>
      <point x="523" y="25"/>
      <point x="503" y="28"/>
      <point x="494" y="23" type="qcurve"/>
      <point x="494" y="23" name="inserted"/>
      <point x="494" y="23"/>
    </contour>
  </outline>
</glyph>
<glyph name="glyph00027" format="1">
  <advance width="922"/>
  <unicode hex="0041"/>
  <outline>
    <contour>
      <point x="461" y="728" type="qcurve"/>
      <point x="457" y="724"/>
      <point x="449" y="714"/>
      <point x="448" y="711" type="qcurve"/>
      <point x="443" y="696" type="line"/>
      <point x="432" y="670" type="line" smooth="yes"/>
      <point x="426" y="656"/>
      <point x="407" y="605"/>
      <point x="398" y="579" type="qcurve" smooth="yes"/>
      <point x="369" y="491"/>
      <point x="339" y="364"/>
      <point x="328" y="284" type="qcurve" smooth="yes"/>
      <point x="322" y="246" type="line"/>
      <point x="289" y="238" type="line" smooth="yes"/>
      <point x="262" y="231"/>
      <point x="243" y="220"/>
      <point x="248" y="216" type="qcurve" smooth="yes" name="inserted"/>
      <point x="252" y="211"/>
      <point x="271" y="212"/>
      <point x="291" y="217" type="qcurve" smooth="yes"/>
      <point x="301" y="219"/>
      <point x="316" y="221"/>
      <point x="318" y="221" type="qcurve" smooth="yes" name="inserted"/>
      <point x="319" y="220"/>
      <point x="316" y="184"/>
      <point x="310" y="131" type="qcurve" smooth="yes"/>
      <point x="305" y="90" type="line"/>
      <point x="302" y="50" type="line" smooth="yes"/>
      <point x="301" y="23"/>
      <point x="302" y="6"/>
      <point x="306" y="3" type="qcurve"/>
      <point x="310" y="0"/>
      <point x="317" y="-1"/>
      <point x="322" y="3" type="qcurve"/>
      <point x="326" y="3"/>
      <point x="330" y="25"/>
      <point x="332" y="61" type="qcurve" smooth="yes"/>
      <point x="338" y="128"/>
      <point x="354" y="228"/>
      <point x="360" y="234" type="qcurve"/>
      <point x="362" y="235" name="inserted"/>
      <point x="371" y="238"/>
      <point x="378" y="241" type="qcurve"/>
      <point x="459" y="264" type="line"/>
      <point x="494" y="275" type="line" smooth="yes"/>
      <point x="506" y="279"/>
      <point x="524" y="284"/>
      <point x="525" y="284" type="qcurve"/>
      <point x="532" y="265"/>
      <point x="578" y="28"/>
      <point x="585" y="-28" type="qcurve" smooth="yes"/>
      <point x="587" y="-47" name="inserted"/>
      <point x="599" y="-60"/>
      <point x="608" y="-52" type="qcurve" smooth="yes"/>
      <point x="611" y="-49"/>
      <point x="612" y="-39"/>
      <point x="611" y="-28" type="qcurve" smooth="yes"/>
      <point x="607" y="11"/>
      <point x="583" y="145"/>
      <point x="566" y="226" type="qcurve" smooth="yes"/>
      <point x="559" y="254"/>
      <point x="553" y="292"/>
      <point x="554" y="293" type="qcurve"/>
      <point x="564" y="298"/>
      <point x="712" y="345"/>
      <point x="747" y="354" type="qcurve" smooth="yes"/>
      <point x="769" y="360"/>
      <point x="781" y="370"/>
      <point x="774" y="375" type="qcurve"/>
      <point x="770" y="381"/>
      <point x="705" y="365"/>
      <point x="614" y="336" type="qcurve" smooth="yes"/>
      <point x="587" y="327"/>
      <point x="549" y="317"/>
      <point x="547" y="318" type="qcurve" smooth="yes" name="inserted"/>
      <point x="545" y="320"/>
      <point x="535" y="378"/>
      <point x="527" y="431" type="qcurve" smooth="yes"/>
      <point x="521" y="466"/>
      <point x="511" y="579"/>
      <point x="506" y="670" type="qcurve" smooth="yes"/>
      <point x="503" y="707"/>
      <point x="496" y="734"/>
      <point x="488" y="736" type="qcurve" smooth="yes" name="inserted"/>
      <point x="480" y="738"/>
      <point x="469" y="735"/>
      <point x="461" y="728" type="qcurve"/>
      <point x="461" y="728" name="inserted"/>
      <point x="461" y="728"/>
    </contour>
    <contour>
      <point x="481" y="663" type="qcurve"/>
      <point x="485" y="566"/>
      <point x="502" y="412"/>
      <point x="515" y="342" type="qcurve" smooth="yes"/>
      <point x="520" y="317" type="line"/>
      <point x="521" y="313" name="inserted"/>
      <point x="521" y="307"/>
      <point x="521" y="306" type="qcurve"/>
      <point x="510" y="302"/>
      <point x="380" y="263"/>
      <point x="368" y="260" type="qcurve"/>
      <point x="365" y="260" name="inserted"/>
      <point x="363" y="262"/>
      <point x="364" y="264" type="qcurve"/>
      <point x="371" y="292" type="line" smooth="yes"/>
      <point x="379" y="331"/>
      <point x="402" y="423"/>
      <point x="418" y="483" type="qcurve" smooth="yes"/>
      <point x="436" y="557" type="line"/>
      <point x="450" y="610" type="line" smooth="yes"/>
      <point x="460" y="653"/>
      <point x="474" y="701"/>
      <point x="476" y="701" type="qcurve" smooth="yes" name="inserted"/>
      <point x="477" y="701"/>
      <point x="480" y="679"/>
      <point x="481" y="663" type="qcurve"/>
      <point x="481" y="663" name="inserted"/>
      <point x="481" y="663"/>
    </contour>
  </outline>
</glyph>
<glyph name="glyph00030" format="1">
  <advance width="888.0"/>
  <unicode hex="0044"/>
  <outline>
    <contour>
      <point x="338" y="776" type="qcurve"/>
      <point x="336" y="773" name="inserted"/>
      <point x="336" y="761"/>
      <point x="338" y="751" type="qcurve" smooth="yes"/>
      <point x="340" y="742"/>
      <point x="340" y="730"/>
      <point x="339" y="730" type="qcurve" smooth="yes" name="inserted"/>
      <point x="338" y="729" name="inserted"/>
      <point x="331" y="726"/>
      <point x="325" y="725" type="qcurve" smooth="yes"/>
      <point x="296" y="720" type="line" smooth="yes"/>
      <point x="202" y="704"/>
      <point x="23" y="648"/>
      <point x="-27" y="619" type="qcurve"/>
      <point x="-46" y="607"/>
      <point x="-66" y="574"/>
      <point x="-63" y="558" type="qcurve" smooth="yes"/>
      <point x="-61" y="543" name="inserted"/>
      <point x="-50" y="528"/>
      <point x="-42" y="528" type="qcurve"/>
      <point x="-33" y="528"/>
      <point x="-27" y="542"/>
      <point x="-31" y="555" type="qcurve" smooth="yes"/>
      <point x="-36" y="571"/>
      <point x="-15" y="597"/>
      <point x="19" y="613" type="qcurve" smooth="yes"/>
      <point x="71" y="637"/>
      <point x="255" y="688"/>
      <point x="329" y="699" type="qcurve" smooth="yes"/>
      <point x="345" y="702" type="line"/>
      <point x="348" y="653" type="line" smooth="yes"/>
      <point x="349" y="632"/>
      <point x="351" y="461"/>
      <point x="351" y="354" type="qcurve" smooth="yes"/>
      <point x="351" y="100" type="line"/>
      <point x="332" y="88" type="line" smooth="yes"/>
      <point x="313" y="74"/>
      <point x="245" y="36"/>
      <point x="221" y="26" type="qcurve" smooth="yes"/>
      <point x="188" y="12"/>
      <point x="129" y="5"/>
      <point x="93" y="10" type="qcurve" smooth="yes"/>
      <point x="73" y="13" name="inserted"/>
      <point x="55" y="8"/>
      <point x="57" y="-2" type="qcurve"/>
      <point x="58" y="-8" name="inserted"/>
      <point x="91" y="-16"/>
      <point x="123" y="-19" type="qcurve" smooth="yes"/>
      <point x="167" y="-21"/>
      <point x="259" y="10"/>
      <point x="331" y="54" type="qcurve" smooth="yes"/>
      <point x="340" y="58"/>
      <point x="353" y="65"/>
      <point x="354" y="65" type="qcurve" smooth="yes" name="inserted"/>
      <point x="354" y="65" name="inserted"/>
      <point x="356" y="58"/>
      <point x="358" y="50" type="qcurve"/>
      <point x="363" y="14" type="line" smooth="yes"/>
      <point x="368" y="-23"/>
      <point x="379" y="-52"/>
      <point x="390" y="-51" type="qcurve"/>
      <point x="393" y="-51" name="inserted"/>
      <point x="398" y="-50"/>
      <point x="400" y="-48" type="qcurve"/>
      <point x="400" y="-47"/>
      <point x="397" y="-7"/>
      <point x="394" y="22" type="qcurve" smooth="yes"/>
      <point x="388" y="68" type="line" smooth="yes"/>
      <point x="387" y="78" name="inserted"/>
      <point x="386" y="89"/>
      <point x="387" y="89" type="qcurve" smooth="yes"/>
      <point x="457" y="146" type="line" smooth="yes"/>
      <point x="585" y="254"/>
      <point x="778" y="471"/>
      <point x="806" y="541" type="qcurve" smooth="yes"/>
      <point x="816" y="567"/>
      <point x="816" y="628"/>
      <point x="807" y="647" type="qcurve"/>
      <point x="794" y="669"/>
      <point x="736" y="709"/>
      <point x="703" y="720" type="qcurve" smooth="yes"/>
      <point x="660" y="733"/>
      <point x="521" y="740"/>
      <point x="441" y="736" type="qcurve" smooth="yes"/>
      <point x="414" y="734"/>
      <point x="377" y="734"/>
      <point x="375" y="734" type="qcurve" smooth="yes" name="inserted"/>
      <point x="374" y="735" name="inserted"/>
      <point x="373" y="738"/>
      <point x="372" y="741" type="qcurve"/>
      <point x="369" y="756" type="line"/>
      <point x="368" y="765"/>
      <point x="364" y="778"/>
      <point x="362" y="780" type="qcurve"/>
      <point x="356" y="785"/>
      <point x="342" y="783"/>
      <point x="338" y="776" type="qcurve"/>
      <point x="338" y="776" name="inserted"/>
      <point x="338" y="776"/>
    </contour>
    <contour>
      <point x="647" y="705" type="qcurve"/>
      <point x="698" y="697"/>
      <point x="770" y="655"/>
      <point x="780" y="630" type="qcurve" smooth="yes" name="inserted"/>
      <point x="790" y="604"/>
      <point x="776" y="543"/>
      <point x="753" y="504" type="qcurve" smooth="yes"/>
      <point x="721" y="451"/>
      <point x="590" y="303"/>
      <point x="506" y="225" type="qcurve" smooth="yes"/>
      <point x="470" y="194"/>
      <point x="389" y="127"/>
      <point x="384" y="125" type="qcurve"/>
      <point x="381" y="163"/>
      <point x="381" y="670"/>
      <point x="384" y="706" type="qcurve"/>
      <point x="416" y="713"/>
      <point x="601" y="713"/>
      <point x="647" y="705" type="qcurve"/>
      <point x="647" y="705" name="inserted"/>
      <point x="647" y="705"/>
    </contour>
  </outline>
</glyph>
<glyph name="glyph00038" format="1">
  <advance width="582"/>
  <unicode hex="004C"/>
  <outline>
    <contour>
      <point x="200" y="789" type="qcurve"/>
      <point x="197" y="785"/>
      <point x="192" y="763"/>
      <point x="189" y="738" type="qcurve" smooth="yes"/>
      <point x="181" y="656" type="line" smooth="yes"/>
      <point x="176" y="606"/>
      <point x="163" y="429"/>
      <point x="159" y="362" type="qcurve" smooth="yes"/>
      <point x="158" y="336"/>
      <point x="156" y="223"/>
      <point x="156" y="162" type="qcurve"/>
      <point x="155" y="49"/>
      <point x="161" y="2"/>
      <point x="177" y="2" type="qcurve"/>
      <point x="183" y="1"/>
      <point x="197" y="0"/>
      <point x="202" y="1" type="qcurve" smooth="yes"/>
      <point x="217" y="3"/>
      <point x="294" y="19"/>
      <point x="335" y="29" type="qcurve" smooth="yes"/>
      <point x="420" y="50" type="line" smooth="yes"/>
      <point x="442" y="56"/>
      <point x="460" y="62"/>
      <point x="461" y="65" type="qcurve" smooth="yes"/>
      <point x="463" y="71"/>
      <point x="451" y="78"/>
      <point x="440" y="76" type="qcurve" smooth="yes"/>
      <point x="437" y="76" name="inserted"/>
      <point x="422" y="73"/>
      <point x="410" y="70" type="qcurve" smooth="yes"/>
      <point x="355" y="57" type="line" smooth="yes"/>
      <point x="277" y="38"/>
      <point x="208" y="22"/>
      <point x="198" y="22" type="qcurve"/>
      <point x="184" y="22" type="line"/>
      <point x="183" y="151" type="line" smooth="yes"/>
      <point x="182" y="265"/>
      <point x="193" y="497"/>
      <point x="206" y="635" type="qcurve" smooth="yes"/>
      <point x="217" y="740" type="line" smooth="yes"/>
      <point x="218" y="748" name="inserted"/>
      <point x="220" y="759"/>
      <point x="220" y="763" type="qcurve" smooth="yes"/>
      <point x="223" y="782"/>
      <point x="216" y="791"/>
      <point x="210" y="792" type="qcurve" smooth="yes" name="inserted"/>
      <point x="207" y="792" name="inserted"/>
      <point x="202" y="790"/>
      <point x="200" y="789" type="qcurve"/>
      <point x="200" y="789" name="inserted"/>
      <point x="200" y="789"/>
    </contour>
  </outline>
</glyph>
<glyph name="glyph00039" format="1">
  <advance width="786"/>
  <unicode hex="004D"/>
  <outline>
    <contour>
      <point x="276" y="790" type="qcurve"/>
      <point x="271" y="789"/>
      <point x="258" y="756"/>
      <point x="244" y="711" type="qcurve" smooth="yes"/>
      <point x="234" y="676"/>
      <point x="221" y="644"/>
      <point x="216" y="637" type="qcurve" smooth="yes" name="inserted"/>
      <point x="211" y="632"/>
      <point x="206" y="612"/>
      <point x="202" y="586" type="qcurve" smooth="yes"/>
      <point x="200" y="569"/>
      <point x="191" y="527"/>
      <point x="187" y="510" type="qcurve" smooth="yes"/>
      <point x="172" y="455"/>
      <point x="150" y="348"/>
      <point x="145" y="307" type="qcurve" smooth="yes"/>
      <point x="141" y="259"/>
      <point x="138" y="26"/>
      <point x="141" y="6" type="qcurve"/>
      <point x="143" y="3" name="inserted"/>
      <point x="148" y="-1"/>
      <point x="152" y="-1" type="qcurve"/>
      <point x="160" y="-1" name="inserted"/>
      <point x="168" y="16"/>
      <point x="168" y="32" type="qcurve" smooth="yes"/>
      <point x="168" y="54"/>
      <point x="186" y="212"/>
      <point x="198" y="300" type="qcurve" smooth="yes"/>
      <point x="203" y="337"/>
      <point x="213" y="429"/>
      <point x="217" y="465" type="qcurve" smooth="yes"/>
      <point x="223" y="528" type="line" smooth="yes"/>
      <point x="225" y="542" name="inserted"/>
      <point x="228" y="559"/>
      <point x="228" y="562" type="qcurve"/>
      <point x="234" y="586"/>
      <point x="271" y="715"/>
      <point x="275" y="726" type="qcurve" smooth="yes"/>
      <point x="278" y="735"/>
      <point x="285" y="674"/>
      <point x="294" y="554" type="qcurve" smooth="yes"/>
      <point x="298" y="510"/>
      <point x="308" y="438"/>
      <point x="315" y="406" type="qcurve" smooth="yes"/>
      <point x="324" y="362"/>
      <point x="337" y="336"/>
      <point x="348" y="337" type="qcurve" smooth="yes" name="inserted"/>
      <point x="359" y="337"/>
      <point x="378" y="360"/>
      <point x="390" y="388" type="qcurve" smooth="yes"/>
      <point x="405" y="421"/>
      <point x="483" y="612"/>
      <point x="506" y="671" type="qcurve" smooth="yes"/>
      <point x="512" y="686"/>
      <point x="526" y="716"/>
      <point x="531" y="724" type="qcurve"/>
      <point x="539" y="738"/>
      <point x="543" y="741"/>
      <point x="545" y="735" type="qcurve" smooth="yes"/>
      <point x="550" y="718"/>
      <point x="562" y="563"/>
      <point x="569" y="417" type="qcurve" smooth="yes"/>
      <point x="581" y="211" type="line" smooth="yes"/>
      <point x="583" y="178"/>
      <point x="587" y="79"/>
      <point x="588" y="37" type="qcurve" smooth="yes"/>
      <point x="589" y="-27"/>
      <point x="592" y="-64"/>
      <point x="596" y="-64" type="qcurve"/>
      <point x="599" y="-65" name="inserted"/>
      <point x="604" y="-65"/>
      <point x="607" y="-64" type="qcurve"/>
      <point x="613" y="-59"/>
      <point x="614" y="80"/>
      <point x="607" y="184" type="qcurve" smooth="yes"/>
      <point x="595" y="420" type="line" smooth="yes"/>
      <point x="587" y="569"/>
      <point x="575" y="725"/>
      <point x="569" y="743" type="qcurve" smooth="yes"/>
      <point x="566" y="753"/>
      <point x="552" y="765"/>
      <point x="544" y="765" type="qcurve"/>
      <point x="528" y="769"/>
      <point x="490" y="701"/>
      <point x="445" y="586" type="qcurve" smooth="yes"/>
      <point x="396" y="465"/>
      <point x="353" y="364"/>
      <point x="351" y="367" type="qcurve" smooth="yes"/>
      <point x="347" y="374"/>
      <point x="330" y="460"/>
      <point x="326" y="491" type="qcurve" smooth="yes"/>
      <point x="322" y="532" type="line"/>
      <point x="316" y="596" type="line" smooth="yes"/>
      <point x="306" y="722"/>
      <point x="297" y="788"/>
      <point x="290" y="788" type="qcurve"/>
      <point x="285" y="791"/>
      <point x="280" y="792"/>
      <point x="276" y="790" type="qcurve"/>
      <point x="276" y="790" name="inserted"/>
      <point x="276" y="790"/>
    </contour>
  </outline>
</glyph>
<glyph name="glyph00040" format="1">
  <advance width="786"/>
  <unicode hex="004E"/>
  <outline>
    <contour>
      <point x="554" y="775" type="qcurve"/>
      <point x="551" y="775"/>
      <point x="549" y="629"/>
      <point x="549" y="446" type="qcurve"/>
      <point x="548" y="308"/>
      <point x="546" y="105"/>
      <point x="545" y="85" type="qcurve" smooth="yes"/>
      <point x="543" y="48" type="line"/>
      <point x="534" y="61" type="line" smooth="yes"/>
      <point x="525" y="76"/>
      <point x="455" y="204"/>
      <point x="428" y="255" type="qcurve" smooth="yes"/>
      <point x="412" y="287" type="line"/>
      <point x="394" y="325" type="line" smooth="yes"/>
      <point x="371" y="374"/>
      <point x="298" y="516"/>
      <point x="265" y="574" type="qcurve" smooth="yes"/>
      <point x="240" y="617"/>
      <point x="229" y="646"/>
      <point x="230" y="659" type="qcurve"/>
      <point x="230" y="669"/>
      <point x="234" y="688"/>
      <point x="235" y="696" type="qcurve"/>
      <point x="240" y="711" name="inserted"/>
      <point x="236" y="726"/>
      <point x="227" y="725" type="qcurve"/>
      <point x="221" y="726"/>
      <point x="213" y="720"/>
      <point x="208" y="711" type="qcurve" smooth="yes"/>
      <point x="202" y="701" type="line"/>
      <point x="199" y="697"/>
      <point x="197" y="697"/>
      <point x="192" y="703" type="qcurve" smooth="yes" name="inserted"/>
      <point x="189" y="707" name="inserted"/>
      <point x="182" y="715"/>
      <point x="178" y="720" type="qcurve" smooth="yes"/>
      <point x="163" y="740" name="inserted"/>
      <point x="134" y="757"/>
      <point x="121" y="751" type="qcurve" smooth="yes"/>
      <point x="117" y="750"/>
      <point x="109" y="742"/>
      <point x="107" y="739" type="qcurve"/>
      <point x="103" y="722"/>
      <point x="103" y="510"/>
      <point x="107" y="417" type="qcurve" smooth="yes"/>
      <point x="116" y="238"/>
      <point x="148" y="-42"/>
      <point x="162" y="-61" type="qcurve"/>
      <point x="166" y="-66"/>
      <point x="183" y="-67"/>
      <point x="189" y="-63" type="qcurve"/>
      <point x="192" y="-60"/>
      <point x="194" y="-25"/>
      <point x="194" y="13" type="qcurve" smooth="yes"/>
      <point x="194" y="69"/>
      <point x="204" y="231"/>
      <point x="210" y="291" type="qcurve" smooth="yes"/>
      <point x="216" y="345"/>
      <point x="226" y="490"/>
      <point x="227" y="528" type="qcurve" smooth="yes"/>
      <point x="227" y="572" type="line"/>
      <point x="236" y="558" type="line" smooth="yes"/>
      <point x="255" y="529"/>
      <point x="338" y="369"/>
      <point x="367" y="306" type="qcurve" smooth="yes"/>
      <point x="391" y="256"/>
      <point x="485" y="80"/>
      <point x="507" y="45" type="qcurve" smooth="yes"/>
      <point x="524" y="19" name="inserted"/>
      <point x="554" y="8"/>
      <point x="567" y="23" type="qcurve"/>
      <point x="576" y="24"/>
      <point x="582" y="189"/>
      <point x="582" y="451" type="qcurve" smooth="yes"/>
      <point x="582" y="688"/>
      <point x="578" y="788"/>
      <point x="565" y="778" type="qcurve"/>
      <point x="562" y="778" name="inserted"/>
      <point x="557" y="776"/>
      <point x="554" y="775" type="qcurve"/>
      <point x="554" y="775" name="inserted"/>
      <point x="554" y="775"/>
    </contour>
    <contour>
      <point x="172" y="672" type="qcurve"/>
      <point x="173" y="672" name="inserted"/>
      <point x="178" y="664"/>
      <point x="182" y="657" type="qcurve" smooth="yes"/>
      <point x="192" y="640" type="line"/>
      <point x="193" y="572" type="line" smooth="yes"/>
      <point x="194" y="520"/>
      <point x="187" y="387"/>
      <point x="179" y="315" type="qcurve" smooth="yes"/>
      <point x="171" y="228" type="line" smooth="yes"/>
      <point x="167" y="176"/>
      <point x="163" y="144"/>
      <point x="160" y="152" type="qcurve"/>
      <point x="153" y="186"/>
      <point x="137" y="485"/>
      <point x="136" y="608" type="qcurve" smooth="yes"/>
      <point x="136" y="722" type="line"/>
      <point x="145" y="713" type="line"/>
      <point x="148" y="709"/>
      <point x="164" y="686"/>
      <point x="172" y="672" type="qcurve"/>
      <point x="172" y="672" name="inserted"/>
      <point x="172" y="672"/>
    </contour>
  </outline>
</glyph>
<glyph name="glyph00041" format="1">
  <advance width="616"/>
  <unicode hex="004F"/>
  <outline>
    <contour>
      <point x="273" y="791" type="qcurve"/>
      <point x="257" y="788" name="inserted"/>
      <point x="222" y="779"/>
      <point x="202" y="771" type="qcurve" smooth="yes"/>
      <point x="189" y="767"/>
      <point x="176" y="758"/>
      <point x="170" y="751" type="qcurve" smooth="yes"/>
      <point x="162" y="742"/>
      <point x="159" y="726"/>
      <point x="164" y="725" type="qcurve" smooth="yes" name="inserted"/>
      <point x="167" y="724" name="inserted"/>
      <point x="162" y="709"/>
      <point x="154" y="695" type="qcurve" smooth="yes"/>
      <point x="117" y="620"/>
      <point x="79" y="448"/>
      <point x="79" y="352" type="qcurve" smooth="yes"/>
      <point x="79" y="268"/>
      <point x="126" y="115"/>
      <point x="169" y="58" type="qcurve" smooth="yes"/>
      <point x="196" y="21"/>
      <point x="255" y="-6"/>
      <point x="290" y="1" type="qcurve"/>
      <point x="308" y="6"/>
      <point x="353" y="43"/>
      <point x="370" y="68" type="qcurve" smooth="yes"/>
      <point x="416" y="140"/>
      <point x="470" y="372"/>
      <point x="470" y="505" type="qcurve" smooth="yes"/>
      <point x="470" y="629"/>
      <point x="426" y="764"/>
      <point x="379" y="784" type="qcurve" smooth="yes"/>
      <point x="369" y="789"/>
      <point x="350" y="792"/>
      <point x="325" y="792" type="qcurve" smooth="yes"/>
      <point x="310" y="792"/>
      <point x="280" y="791"/>
      <point x="273" y="791" type="qcurve"/>
      <point x="273" y="791" name="inserted"/>
      <point x="273" y="791"/>
    </contour>
    <contour>
      <point x="363" y="766" type="qcurve"/>
      <point x="378" y="760"/>
      <point x="398" y="742"/>
      <point x="406" y="726" type="qcurve"/>
      <point x="426" y="691"/>
      <point x="443" y="585"/>
      <point x="443" y="505" type="qcurve" smooth="yes"/>
      <point x="443" y="427" name="inserted"/>
      <point x="424" y="281"/>
      <point x="404" y="213" type="qcurve" smooth="yes"/>
      <point x="387" y="154"/>
      <point x="349" y="78"/>
      <point x="325" y="52" type="qcurve" smooth="yes"/>
      <point x="306" y="30"/>
      <point x="272" y="17"/>
      <point x="250" y="22" type="qcurve"/>
      <point x="216" y="31"/>
      <point x="147" y="136"/>
      <point x="124" y="213" type="qcurve" smooth="yes"/>
      <point x="94" y="324"/>
      <point x="133" y="605"/>
      <point x="193" y="710" type="qcurve" smooth="yes"/>
      <point x="204" y="730"/>
      <point x="226" y="750"/>
      <point x="246" y="758" type="qcurve" smooth="yes" name="inserted"/>
      <point x="265" y="766"/>
      <point x="297" y="771"/>
      <point x="320" y="771" type="qcurve"/>
      <point x="335" y="772"/>
      <point x="353" y="769"/>
      <point x="363" y="766" type="qcurve"/>
      <point x="363" y="766" name="inserted"/>
      <point x="363" y="766"/>
    </contour>
  </outline>
</glyph>
<glyph name="glyph00047" format="1">
  <advance width="786"/>
  <unicode hex="0055"/>
  <outline>
    <contour>
      <point x="627" y="778" type="qcurve"/>
      <point x="623" y="774"/>
      <point x="600" y="665"/>
      <point x="580" y="558" type="qcurve" smooth="yes"/>
      <point x="551" y="394"/>
      <point x="514" y="229"/>
      <point x="494" y="177" type="qcurve" smooth="yes"/>
      <point x="459" y="82" name="inserted"/>
      <point x="386" y="46"/>
      <point x="348" y="108" type="qcurve" smooth="yes"/>
      <point x="294" y="194"/>
      <point x="241" y="444"/>
      <point x="235" y="636" type="qcurve" smooth="yes"/>
      <point x="234" y="695"/>
      <point x="230" y="730"/>
      <point x="225" y="731" type="qcurve"/>
      <point x="222" y="734" name="inserted"/>
      <point x="214" y="734"/>
      <point x="210" y="731" type="qcurve"/>
      <point x="205" y="730"/>
      <point x="202" y="708"/>
      <point x="201" y="675" type="qcurve" smooth="yes"/>
      <point x="200" y="602"/>
      <point x="218" y="396"/>
      <point x="231" y="327" type="qcurve" smooth="yes"/>
      <point x="240" y="279"/>
      <point x="267" y="192"/>
      <point x="285" y="156" type="qcurve" smooth="yes"/>
      <point x="304" y="115"/>
      <point x="337" y="65"/>
      <point x="357" y="51" type="qcurve"/>
      <point x="371" y="38"/>
      <point x="387" y="33"/>
      <point x="401" y="33" type="qcurve" smooth="yes"/>
      <point x="411" y="33"/>
      <point x="432" y="36"/>
      <point x="437" y="38" type="qcurve"/>
      <point x="469" y="51"/>
      <point x="528" y="159"/>
      <point x="552" y="247" type="qcurve" smooth="yes"/>
      <point x="560" y="278"/>
      <point x="598" y="462"/>
      <point x="607" y="508" type="qcurve"/>
      <point x="607" y="509" name="inserted"/>
      <point x="608" y="478"/>
      <point x="608" y="446" type="qcurve" smooth="yes"/>
      <point x="609" y="284" type="line" smooth="yes"/>
      <point x="609" y="121"/>
      <point x="615" y="-27"/>
      <point x="623" y="-64" type="qcurve" smooth="yes"/>
      <point x="627" y="-84"/>
      <point x="639" y="-98"/>
      <point x="650" y="-95" type="qcurve"/>
      <point x="657" y="-93"/>
      <point x="662" y="-78"/>
      <point x="659" y="-72" type="qcurve"/>
      <point x="658" y="-67"/>
      <point x="653" y="-31"/>
      <point x="650" y="-5" type="qcurve" smooth="yes"/>
      <point x="647" y="26"/>
      <point x="643" y="157"/>
      <point x="643" y="276" type="qcurve" smooth="yes"/>
      <point x="643" y="422"/>
      <point x="649" y="587"/>
      <point x="657" y="708" type="qcurve" smooth="yes"/>
      <point x="659" y="739" name="inserted"/>
      <point x="659" y="774"/>
      <point x="657" y="777" type="qcurve"/>
      <point x="652" y="782"/>
      <point x="634" y="784"/>
      <point x="627" y="778" type="qcurve"/>
      <point x="627" y="778" name="inserted"/>
      <point x="627" y="778"/>
    </contour>
  </outline>
</glyph>
<glyph name="glyph00050" format="1">
  <advance width="616"/>
  <unicode hex="0058"/>
  <outline>
    <contour>
      <point x="534" y="723" type="qcurve"/>
      <point x="512" y="703"/>
      <point x="443" y="597"/>
      <point x="397" y="514" type="qcurve" smooth="yes"/>
      <point x="382" y="489"/>
      <point x="353" y="440"/>
      <point x="345" y="427" type="qcurve"/>
      <point x="319" y="384" type="line" smooth="yes"/>
      <point x="316" y="378"/>
      <point x="310" y="370"/>
      <point x="309" y="370" type="qcurve" smooth="yes" name="inserted"/>
      <point x="308" y="370"/>
      <point x="304" y="377"/>
      <point x="303" y="382" type="qcurve" smooth="yes"/>
      <point x="290" y="422"/>
      <point x="220" y="570"/>
      <point x="183" y="639" type="qcurve" smooth="yes"/>
      <point x="162" y="679" type="line" smooth="yes"/>
      <point x="157" y="688" name="inserted"/>
      <point x="152" y="700"/>
      <point x="151" y="702" type="qcurve" smooth="yes"/>
      <point x="148" y="713" name="inserted"/>
      <point x="139" y="724"/>
      <point x="133" y="724" type="qcurve"/>
      <point x="120" y="724"/>
      <point x="131" y="686"/>
      <point x="159" y="634" type="qcurve" smooth="yes"/>
      <point x="186" y="586"/>
      <point x="226" y="505"/>
      <point x="245" y="461" type="qcurve" smooth="yes"/>
      <point x="262" y="422"/>
      <point x="290" y="350"/>
      <point x="291" y="342" type="qcurve"/>
      <point x="290" y="339"/>
      <point x="238" y="264"/>
      <point x="197" y="209" type="qcurve" smooth="yes"/>
      <point x="165" y="164"/>
      <point x="129" y="112"/>
      <point x="121" y="98" type="qcurve" smooth="yes"/>
      <point x="108" y="74"/>
      <point x="93" y="53"/>
      <point x="87" y="52" type="qcurve" smooth="yes"/>
      <point x="80" y="50"/>
      <point x="78" y="37"/>
      <point x="84" y="32" type="qcurve"/>
      <point x="89" y="29" name="inserted"/>
      <point x="99" y="29"/>
      <point x="105" y="33" type="qcurve"/>
      <point x="109" y="35"/>
      <point x="133" y="71"/>
      <point x="144" y="91" type="qcurve" smooth="yes"/>
      <point x="152" y="106"/>
      <point x="198" y="171"/>
      <point x="229" y="214" type="qcurve" smooth="yes"/>
      <point x="280" y="284" type="line" smooth="yes"/>
      <point x="289" y="296"/>
      <point x="302" y="312"/>
      <point x="303" y="311" type="qcurve" smooth="yes" name="inserted"/>
      <point x="304" y="311" name="inserted"/>
      <point x="306" y="306"/>
      <point x="308" y="301" type="qcurve"/>
      <point x="330" y="244" type="line"/>
      <point x="357" y="178" type="line"/>
      <point x="371" y="143" type="line" smooth="yes"/>
      <point x="383" y="111"/>
      <point x="403" y="64"/>
      <point x="420" y="34" type="qcurve" smooth="yes"/>
      <point x="430" y="15"/>
      <point x="440" y="0"/>
      <point x="444" y="0" type="qcurve"/>
      <point x="456" y="-3" name="inserted"/>
      <point x="457" y="14"/>
      <point x="446" y="34" type="qcurve" smooth="yes"/>
      <point x="430" y="63"/>
      <point x="407" y="116"/>
      <point x="393" y="151" type="qcurve" smooth="yes"/>
      <point x="377" y="192" type="line"/>
      <point x="365" y="223" type="line" smooth="yes"/>
      <point x="351" y="254"/>
      <point x="322" y="331"/>
      <point x="321" y="338" type="qcurve"/>
      <point x="321" y="341"/>
      <point x="343" y="379"/>
      <point x="360" y="407" type="qcurve" smooth="yes" name="inserted"/>
      <point x="377" y="434"/>
      <point x="414" y="496"/>
      <point x="425" y="516" type="qcurve" smooth="yes"/>
      <point x="464" y="587"/>
      <point x="533" y="691"/>
      <point x="554" y="712" type="qcurve" smooth="yes"/>
      <point x="565" y="724" name="inserted"/>
      <point x="566" y="736"/>
      <point x="557" y="737" type="qcurve" smooth="yes"/>
      <point x="552" y="738"/>
      <point x="543" y="732"/>
      <point x="534" y="723" type="qcurve"/>
      <point x="534" y="723" name="inserted"/>
      <point x="534" y="723"/>
    </contour>
  </outline>
</glyph>
<glyph name="glyph00052" format="1">
  <advance width="650"/>
  <unicode hex="005A"/>
  <outline>
    <contour>
      <point x="395" y="743" type="qcurve"/>
      <point x="364" y="741"/>
      <point x="266" y="722"/>
      <point x="159" y="697" type="qcurve" smooth="yes"/>
      <point x="101" y="684" type="line"/>
      <point x="60" y="675" type="line" smooth="yes"/>
      <point x="34" y="670"/>
      <point x="11" y="663"/>
      <point x="11" y="658" type="qcurve"/>
      <point x="9" y="651"/>
      <point x="26" y="650"/>
      <point x="48" y="655" type="qcurve" smooth="yes"/>
      <point x="102" y="666" type="line"/>
      <point x="162" y="680" type="line" smooth="yes"/>
      <point x="243" y="698"/>
      <point x="329" y="717"/>
      <point x="345" y="720" type="qcurve"/>
      <point x="374" y="724"/>
      <point x="458" y="729"/>
      <point x="466" y="727" type="qcurve"/>
      <point x="468" y="725"/>
      <point x="468" y="717"/>
      <point x="466" y="708" type="qcurve" smooth="yes"/>
      <point x="464" y="696"/>
      <point x="440" y="644"/>
      <point x="412" y="596" type="qcurve" smooth="yes"/>
      <point x="394" y="564" type="line"/>
      <point x="378" y="534" type="line" smooth="yes"/>
      <point x="365" y="510"/>
      <point x="334" y="456"/>
      <point x="302" y="403" type="qcurve" smooth="yes"/>
      <point x="251" y="320"/>
      <point x="190" y="197"/>
      <point x="169" y="134" type="qcurve" smooth="yes"/>
      <point x="152" y="82"/>
      <point x="142" y="47"/>
      <point x="140" y="36" type="qcurve" smooth="yes"/>
      <point x="136" y="19"/>
      <point x="143" y="3"/>
      <point x="156" y="1" type="qcurve"/>
      <point x="160" y="-1"/>
      <point x="201" y="4"/>
      <point x="264" y="14" type="qcurve" smooth="yes"/>
      <point x="346" y="26"/>
      <point x="422" y="39"/>
      <point x="459" y="48" type="qcurve" smooth="yes"/>
      <point x="555" y="69" type="line" smooth="yes"/>
      <point x="560" y="70" name="inserted"/>
      <point x="566" y="72"/>
      <point x="566" y="72" type="qcurve"/>
      <point x="570" y="75"/>
      <point x="570" y="82"/>
      <point x="566" y="84" type="qcurve"/>
      <point x="566" y="87"/>
      <point x="537" y="83"/>
      <point x="477" y="70" type="qcurve" smooth="yes"/>
      <point x="427" y="58"/>
      <point x="345" y="43"/>
      <point x="268" y="31" type="qcurve" smooth="yes"/>
      <point x="193" y="19"/>
      <point x="158" y="15"/>
      <point x="159" y="17" type="qcurve"/>
      <point x="158" y="21"/>
      <point x="170" y="67"/>
      <point x="181" y="102" type="qcurve" smooth="yes"/>
      <point x="207" y="183"/>
      <point x="268" y="309"/>
      <point x="323" y="399" type="qcurve" smooth="yes"/>
      <point x="357" y="453"/>
      <point x="388" y="507"/>
      <point x="404" y="536" type="qcurve" smooth="yes"/>
      <point x="440" y="603" type="line" smooth="yes"/>
      <point x="470" y="656"/>
      <point x="491" y="709"/>
      <point x="488" y="725" type="qcurve"/>
      <point x="488" y="730"/>
      <point x="485" y="737"/>
      <point x="481" y="741" type="qcurve" smooth="yes" name="inserted"/>
      <point x="476" y="744"/>
      <point x="464" y="745"/>
      <point x="446" y="744" type="qcurve" smooth="yes"/>
      <point x="420" y="744" type="line"/>
      <point x="395" y="743" type="line"/>
      <point x="395" y="743" name="inserted"/>
      <point x="395" y="743"/>
    </contour>
  </outline>
</glyph>
<glyph name="glyph00054" format="1">
  <advance width="1024"/>
  <unicode hex="005C"/>
  <outline>
    <contour>
      <point x="236" y="789" type="qcurve"/>
      <point x="236" y="787" name="inserted"/>
      <point x="240" y="779"/>
      <point x="243" y="773" type="qcurve" smooth="yes"/>
      <point x="275" y="705" type="line"/>
      <point x="319" y="610" type="line"/>
      <point x="351" y="540" type="line" smooth="yes"/>
      <point x="376" y="488"/>
      <point x="418" y="387"/>
      <point x="459" y="288" type="qcurve" smooth="yes"/>
      <point x="506" y="176" type="line" smooth="yes"/>
      <point x="519" y="145"/>
      <point x="546" y="78"/>
      <point x="553" y="59" type="qcurve" smooth="yes" name="inserted"/>
      <point x="560" y="40"/>
      <point x="571" y="11"/>
      <point x="573" y="9" type="qcurve"/>
      <point x="577" y="3"/>
      <point x="590" y="-2"/>
      <point x="594" y="1" type="qcurve"/>
      <point x="597" y="3"/>
      <point x="592" y="24"/>
      <point x="581" y="56" type="qcurve" smooth="yes"/>
      <point x="561" y="111"/>
      <point x="434" y="420"/>
      <point x="400" y="494" type="qcurve" smooth="yes"/>
      <point x="345" y="613"/>
      <point x="264" y="779"/>
      <point x="258" y="787" type="qcurve"/>
      <point x="256" y="790"/>
      <point x="247" y="794"/>
      <point x="243" y="794" type="qcurve" smooth="yes"/>
      <point x="235" y="796"/>
      <point x="233" y="794"/>
      <point x="236" y="789" type="qcurve"/>
      <point x="236" y="789" name="inserted"/>
      <point x="236" y="789"/>
    </contour>
  </outline>
</glyph>
<glyph name="glyph00055" format="1">
  <advance width="1024"/>
  <unicode hex="005D"/>
  <outline>
    <contour>
      <point x="537" y="766" type="qcurve"/>
      <point x="516" y="762"/>
      <point x="501" y="758"/>
      <point x="498" y="754" type="qcurve"/>
      <point x="493" y="748"/>
      <point x="498" y="743"/>
      <point x="502" y="740" type="qcurve"/>
      <point x="505" y="739"/>
      <point x="509" y="739"/>
      <point x="514" y="743" type="qcurve" smooth="yes" name="inserted"/>
      <point x="518" y="746"/>
      <point x="537" y="750"/>
      <point x="566" y="753" type="qcurve" smooth="yes"/>
      <point x="573" y="754"/>
      <point x="578" y="753"/>
      <point x="578" y="751" type="qcurve" smooth="yes"/>
      <point x="580" y="743"/>
      <point x="584" y="685"/>
      <point x="585" y="650" type="qcurve" smooth="yes"/>
      <point x="586" y="639" name="inserted"/>
      <point x="586" y="603"/>
      <point x="587" y="577" type="qcurve" smooth="yes"/>
      <point x="590" y="362" type="line" smooth="yes"/>
      <point x="590" y="337" name="inserted"/>
      <point x="591" y="301"/>
      <point x="591" y="290" type="qcurve" smooth="yes"/>
      <point x="593" y="247"/>
      <point x="601" y="121"/>
      <point x="605" y="82" type="qcurve" smooth="yes"/>
      <point x="609" y="46"/>
      <point x="611" y="19"/>
      <point x="611" y="18" type="qcurve" smooth="yes" name="inserted"/>
      <point x="610" y="16"/>
      <point x="604" y="15"/>
      <point x="593" y="15" type="qcurve"/>
      <point x="587" y="16"/>
      <point x="577" y="15"/>
      <point x="576" y="15" type="qcurve"/>
      <point x="576" y="12"/>
      <point x="583" y="4"/>
      <point x="589" y="2" type="qcurve"/>
      <point x="596" y="0"/>
      <point x="617" y="1"/>
      <point x="622" y="3" type="qcurve" smooth="yes" name="inserted"/>
      <point x="625" y="4" name="inserted"/>
      <point x="628" y="8"/>
      <point x="628" y="10" type="qcurve"/>
      <point x="629" y="14"/>
      <point x="627" y="49"/>
      <point x="623" y="87" type="qcurve" smooth="yes"/>
      <point x="621" y="106"/>
      <point x="617" y="171"/>
      <point x="615" y="212" type="qcurve" smooth="yes"/>
      <point x="613" y="245" name="inserted"/>
      <point x="609" y="367"/>
      <point x="608" y="457" type="qcurve" smooth="yes"/>
      <point x="607" y="562"/>
      <point x="602" y="688"/>
      <point x="598" y="723" type="qcurve" smooth="yes"/>
      <point x="595" y="750"/>
      <point x="583" y="767"/>
      <point x="564" y="766" type="qcurve"/>
      <point x="557" y="767"/>
      <point x="542" y="766"/>
      <point x="537" y="766" type="qcurve"/>
      <point x="537" y="766" name="inserted"/>
      <point x="537" y="766"/>
    </contour>
  </outline>
</glyph>
<glyph name="glyph00058" format="1">
  <advance width="1024"/>
  <unicode hex="0060"/>
  <outline>
    <contour>
      <point x="275" y="945" type="qcurve"/>
      <point x="278" y="901"/>
      <point x="301" y="734"/>
      <point x="328" y="564" type="qcurve" smooth="yes"/>
      <point x="344" y="465"/>
      <point x="375" y="257"/>
      <point x="384" y="198" type="qcurve" smooth="yes"/>
      <point x="399" y="87"/>
      <point x="415" y="14"/>
      <point x="425" y="6" type="qcurve"/>
      <point x="447" y="-21"/>
      <point x="423" y="207"/>
      <point x="370" y="535" type="qcurve" smooth="yes"/>
      <point x="351" y="654"/>
      <point x="322" y="851"/>
      <point x="319" y="880" type="qcurve" smooth="yes"/>
      <point x="314" y="914"/>
      <point x="307" y="953"/>
      <point x="300" y="962" type="qcurve" smooth="yes"/>
      <point x="284" y="984"/>
      <point x="273" y="975"/>
      <point x="275" y="945" type="qcurve"/>
      <point x="275" y="945" name="inserted"/>
      <point x="275" y="945"/>
    </contour>
  </outline>
</glyph>
<glyph name="glyph00064" format="1">
  <advance width="548.0"/>
  <unicode hex="0066"/>
  <outline>
    <contour>
      <point x="180" y="794" type="qcurve"/>
      <point x="154" y="783"/>
      <point x="132" y="684"/>
      <point x="139" y="601" type="qcurve" smooth="yes"/>
      <point x="141" y="554"/>
      <point x="153" y="471"/>
      <point x="167" y="392" type="qcurve" smooth="yes"/>
      <point x="173" y="355"/>
      <point x="180" y="305"/>
      <point x="179" y="304" type="qcurve" smooth="yes" name="inserted"/>
      <point x="179" y="302"/>
      <point x="164" y="296"/>
      <point x="154" y="294" type="qcurve"/>
      <point x="113" y="282"/>
      <point x="75" y="257"/>
      <point x="67" y="239" type="qcurve" smooth="yes"/>
      <point x="60" y="224" name="inserted"/>
      <point x="63" y="209"/>
      <point x="72" y="209" type="qcurve" smooth="yes"/>
      <point x="76" y="209"/>
      <point x="83" y="216"/>
      <point x="89" y="225" type="qcurve"/>
      <point x="94" y="234" name="inserted"/>
      <point x="106" y="247"/>
      <point x="113" y="250" type="qcurve" smooth="yes"/>
      <point x="129" y="258"/>
      <point x="183" y="277"/>
      <point x="186" y="275" type="qcurve"/>
      <point x="191" y="264"/>
      <point x="206" y="142"/>
      <point x="210" y="94" type="qcurve" smooth="yes"/>
      <point x="212" y="53"/>
      <point x="212" y="29"/>
      <point x="208" y="27" type="qcurve"/>
      <point x="203" y="20"/>
      <point x="203" y="12"/>
      <point x="209" y="6" type="qcurve" smooth="yes" name="inserted"/>
      <point x="212" y="4" name="inserted"/>
      <point x="218" y="0"/>
      <point x="221" y="0" type="qcurve"/>
      <point x="223" y="0"/>
      <point x="230" y="4"/>
      <point x="233" y="7" type="qcurve" smooth="yes" name="inserted"/>
      <point x="237" y="10"/>
      <point x="239" y="23"/>
      <point x="239" y="41" type="qcurve" smooth="yes"/>
      <point x="239" y="74"/>
      <point x="230" y="168"/>
      <point x="224" y="217" type="qcurve" smooth="yes"/>
      <point x="214" y="281" type="line"/>
      <point x="217" y="286"/>
      <point x="286" y="306"/>
      <point x="319" y="311" type="qcurve" smooth="yes"/>
      <point x="342" y="314"/>
      <point x="356" y="324"/>
      <point x="351" y="331" type="qcurve" smooth="yes" name="inserted"/>
      <point x="346" y="339"/>
      <point x="295" y="335"/>
      <point x="255" y="325" type="qcurve" smooth="yes"/>
      <point x="231" y="318"/>
      <point x="211" y="314"/>
      <point x="209" y="316" type="qcurve"/>
      <point x="205" y="328"/>
      <point x="178" y="485"/>
      <point x="172" y="526" type="qcurve" smooth="yes"/>
      <point x="160" y="618"/>
      <point x="167" y="744"/>
      <point x="184" y="764" type="qcurve" smooth="yes"/>
      <point x="192" y="773"/>
      <point x="223" y="766"/>
      <point x="243" y="751" type="qcurve" smooth="yes"/>
      <point x="261" y="737" name="inserted"/>
      <point x="282" y="688"/>
      <point x="285" y="652" type="qcurve" smooth="yes"/>
      <point x="287" y="633"/>
      <point x="297" y="620"/>
      <point x="306" y="625" type="qcurve"/>
      <point x="314" y="634"/>
      <point x="308" y="702"/>
      <point x="294" y="730" type="qcurve" smooth="yes"/>
      <point x="274" y="764"/>
      <point x="205" y="804"/>
      <point x="180" y="794" type="qcurve"/>
      <point x="180" y="794" name="inserted"/>
      <point x="180" y="794"/>
    </contour>
  </outline>
</glyph>
<glyph name="glyph00066" format="1">
  <advance width="548.0"/>
  <unicode hex="0068"/>
  <outline>
    <contour>
      <point x="152" y="967" type="qcurve"/>
      <point x="146" y="957"/>
      <point x="141" y="884"/>
      <point x="143" y="830" type="qcurve" smooth="yes"/>
      <point x="143" y="781"/>
      <point x="156" y="634"/>
      <point x="169" y="495" type="qcurve" smooth="yes"/>
      <point x="177" y="397"/>
      <point x="189" y="238"/>
      <point x="193" y="137" type="qcurve" smooth="yes"/>
      <point x="197" y="52"/>
      <point x="204" y="-8"/>
      <point x="210" y="-9" type="qcurve" smooth="yes" name="inserted"/>
      <point x="215" y="-11"/>
      <point x="228" y="-3"/>
      <point x="229" y="5" type="qcurve"/>
      <point x="230" y="7" name="inserted"/>
      <point x="229" y="30"/>
      <point x="231" y="48" type="qcurve" smooth="yes"/>
      <point x="240" y="143" type="line" smooth="yes"/>
      <point x="253" y="275"/>
      <point x="293" y="363"/>
      <point x="307" y="359" type="qcurve"/>
      <point x="311" y="360" name="inserted"/>
      <point x="331" y="302"/>
      <point x="344" y="253" type="qcurve" smooth="yes"/>
      <point x="382" y="112"/>
      <point x="373" y="47"/>
      <point x="381" y="55" type="qcurve"/>
      <point x="390" y="54"/>
      <point x="396" y="91"/>
      <point x="389" y="132" type="qcurve" smooth="yes"/>
      <point x="369" y="251" type="line" smooth="yes"/>
      <point x="363" y="284"/>
      <point x="338" y="342"/>
      <point x="337" y="351" type="qcurve" smooth="yes"/>
      <point x="332" y="369" name="inserted"/>
      <point x="307" y="390"/>
      <point x="295" y="390" type="qcurve" smooth="yes"/>
      <point x="287" y="390"/>
      <point x="276" y="383"/>
      <point x="268" y="373" type="qcurve" smooth="yes"/>
      <point x="257" y="357"/>
      <point x="240" y="296"/>
      <point x="233" y="239" type="qcurve" smooth="yes"/>
      <point x="226" y="191" type="line" smooth="yes"/>
      <point x="224" y="171"/>
      <point x="221" y="163"/>
      <point x="218" y="188" type="qcurve" smooth="yes" name="inserted"/>
      <point x="215" y="212"/>
      <point x="211" y="297"/>
      <point x="207" y="356" type="qcurve" smooth="yes" name="inserted"/>
      <point x="205" y="385" name="inserted"/>
      <point x="200" y="438"/>
      <point x="198" y="462" type="qcurve" smooth="yes"/>
      <point x="177" y="684"/>
      <point x="165" y="895"/>
      <point x="171" y="931" type="qcurve" smooth="yes"/>
      <point x="175" y="957"/>
      <point x="168" y="972"/>
      <point x="161" y="973" type="qcurve" smooth="yes" name="inserted"/>
      <point x="159" y="974" name="inserted"/>
      <point x="154" y="971"/>
      <point x="152" y="967" type="qcurve"/>
      <point x="152" y="967" name="inserted"/>
      <point x="152" y="967"/>
    </contour>
  </outline>
</glyph>
<glyph name="glyph00077" format="1">
  <advance width="514.0"/>
  <unicode hex="0073"/>
  <outline>
    <contour>
      <point x="237" y="482" type="qcurve"/>
      <point x="211" y="466"/>
      <point x="164" y="408"/>
      <point x="148" y="373" type="qcurve" smooth="yes"/>
      <point x="139" y="352"/>
      <point x="134" y="324"/>
      <point x="134" y="301" type="qcurve"/>
      <point x="133" y="266"/>
      <point x="152" y="229"/>
      <point x="180" y="206" type="qcurve" smooth="yes"/>
      <point x="220" y="175"/>
      <point x="257" y="124"/>
      <point x="257" y="100" type="qcurve"/>
      <point x="257" y="89"/>
      <point x="252" y="78"/>
      <point x="240" y="69" type="qcurve" smooth="yes"/>
      <point x="232" y="64"/>
      <point x="213" y="49"/>
      <point x="204" y="45" type="qcurve" smooth="yes" name="inserted"/>
      <point x="198" y="43"/>
      <point x="187" y="32"/>
      <point x="186" y="29" type="qcurve"/>
      <point x="182" y="17"/>
      <point x="190" y="4"/>
      <point x="199" y="4" type="qcurve"/>
      <point x="209" y="5"/>
      <point x="258" y="35"/>
      <point x="273" y="47" type="qcurve"/>
      <point x="290" y="65"/>
      <point x="294" y="122"/>
      <point x="281" y="150" type="qcurve" smooth="yes"/>
      <point x="272" y="167"/>
      <point x="235" y="210"/>
      <point x="213" y="229" type="qcurve" smooth="yes"/>
      <point x="180" y="254"/>
      <point x="165" y="276"/>
      <point x="166" y="301" type="qcurve"/>
      <point x="166" y="329"/>
      <point x="187" y="380"/>
      <point x="207" y="407" type="qcurve" smooth="yes"/>
      <point x="228" y="433"/>
      <point x="269" y="460"/>
      <point x="286" y="460" type="qcurve" smooth="yes"/>
      <point x="298" y="460"/>
      <point x="316" y="451"/>
      <point x="330" y="436" type="qcurve" smooth="yes"/>
      <point x="349" y="416" name="inserted"/>
      <point x="371" y="414"/>
      <point x="372" y="430" type="qcurve"/>
      <point x="373" y="437"/>
      <point x="365" y="452"/>
      <point x="354" y="462" type="qcurve" smooth="yes"/>
      <point x="334" y="482"/>
      <point x="305" y="499"/>
      <point x="285" y="498" type="qcurve" smooth="yes"/>
      <point x="273" y="498"/>
      <point x="252" y="492"/>
      <point x="237" y="482" type="qcurve"/>
      <point x="237" y="482" name="inserted"/>
      <point x="237" y="482"/>
    </contour>
  </outline>
</glyph>
<glyph name="glyph00078" format="1">
  <advance width="378.0"/>
  <unicode hex="0074"/>
  <outline>
    <contour>
      <point x="167" y="675" type="qcurve"/>
      <point x="160" y="667"/>
      <point x="155" y="612"/>
      <point x="152" y="525" type="qcurve" smooth="yes"/>
      <point x="149" y="399" type="line"/>
      <point x="127" y="390" type="line" smooth="yes"/>
      <point x="103" y="380"/>
      <point x="70" y="348"/>
      <point x="71" y="334" type="qcurve"/>
      <point x="73" y="322"/>
      <point x="90" y="321"/>
      <point x="99" y="331" type="qcurve" smooth="yes" name="inserted"/>
      <point x="111" y="340"/>
      <point x="136" y="356"/>
      <point x="145" y="356" type="qcurve"/>
      <point x="149" y="360"/>
      <point x="152" y="322"/>
      <point x="155" y="244" type="qcurve" smooth="yes"/>
      <point x="155" y="173"/>
      <point x="160" y="115"/>
      <point x="167" y="90" type="qcurve" smooth="yes"/>
      <point x="179" y="36"/>
      <point x="210" y="-2"/>
      <point x="237" y="-1" type="qcurve"/>
      <point x="252" y="-1"/>
      <point x="263" y="7"/>
      <point x="275" y="20" type="qcurve" smooth="yes"/>
      <point x="288" y="36"/>
      <point x="294" y="57"/>
      <point x="288" y="63" type="qcurve" smooth="yes" name="inserted"/>
      <point x="283" y="71"/>
      <point x="268" y="65"/>
      <point x="256" y="51" type="qcurve" smooth="yes"/>
      <point x="244" y="36"/>
      <point x="229" y="32"/>
      <point x="220" y="44" type="qcurve"/>
      <point x="214" y="48"/>
      <point x="205" y="73"/>
      <point x="199" y="98" type="qcurve" smooth="yes"/>
      <point x="191" y="126"/>
      <point x="187" y="178"/>
      <point x="187" y="255" type="qcurve" smooth="yes"/>
      <point x="187" y="368" type="line"/>
      <point x="234" y="378" type="line" smooth="yes"/>
      <point x="252" y="380"/>
      <point x="262" y="396"/>
      <point x="253" y="406" type="qcurve"/>
      <point x="250" y="414"/>
      <point x="237" y="415"/>
      <point x="220" y="410" type="qcurve"/>
      <point x="201" y="408" type="line" smooth="yes"/>
      <point x="196" y="406" name="inserted"/>
      <point x="191" y="406"/>
      <point x="190" y="406" type="qcurve"/>
      <point x="186" y="416"/>
      <point x="186" y="596"/>
      <point x="190" y="637" type="qcurve" smooth="yes"/>
      <point x="194" y="658" name="inserted"/>
      <point x="187" y="681"/>
      <point x="178" y="681" type="qcurve" smooth="yes"/>
      <point x="175" y="681"/>
      <point x="168" y="676"/>
      <point x="167" y="675" type="qcurve"/>
      <point x="167" y="675" name="inserted"/>
      <point x="167" y="675"/>
    </contour>
  </outline>
</glyph>
<glyph name="glyph00086" format="1">
  <advance width="1024"/>
  <unicode hex="007C"/>
  <outline>
    <contour>
      <point x="527" y="779" type="qcurve"/>
      <point x="526" y="774"/>
      <point x="525" y="730"/>
      <point x="525" y="701" type="qcurve" smooth="yes"/>
      <point x="524" y="623"/>
      <point x="518" y="474"/>
      <point x="514" y="407" type="qcurve" smooth="yes"/>
      <point x="510" y="344"/>
      <point x="507" y="190"/>
      <point x="509" y="104" type="qcurve" smooth="yes"/>
      <point x="510" y="38" type="line" smooth="yes"/>
      <point x="511" y="11"/>
      <point x="513" y="5"/>
      <point x="517" y="2" type="qcurve" smooth="yes" name="inserted"/>
      <point x="520" y="1" name="inserted"/>
      <point x="523" y="0"/>
      <point x="524" y="0" type="qcurve"/>
      <point x="526" y="-2"/>
      <point x="529" y="67"/>
      <point x="529" y="178" type="qcurve" smooth="yes"/>
      <point x="529" y="272"/>
      <point x="533" y="376"/>
      <point x="538" y="477" type="qcurve" smooth="yes"/>
      <point x="539" y="498"/>
      <point x="541" y="590"/>
      <point x="542" y="647" type="qcurve" smooth="yes"/>
      <point x="543" y="737" type="line" smooth="yes"/>
      <point x="544" y="774"/>
      <point x="545" y="781"/>
      <point x="544" y="783" type="qcurve" smooth="yes" name="inserted"/>
      <point x="544" y="784" name="inserted"/>
      <point x="542" y="786"/>
      <point x="540" y="787" type="qcurve"/>
      <point x="533" y="791"/>
      <point x="528" y="788"/>
      <point x="527" y="779" type="qcurve"/>
      <point x="527" y="779" name="inserted"/>
      <point x="527" y="779"/>
    </contour>
  </outline>
</glyph>
